<?xml version="1.0" encoding="UTF-8" standalone="no"?>
<!-- Created with Inkscape (http://www.inkscape.org/) -->

<!-- Source (edited) - https://openclipart.org/detail/31519/validcss -->

<!-- Date retrieved and edited - 2017-08-17 -->

<!-- License: Creative Commons Zero 1.0 Public Domain License - http://creativecommons.org/publicdomain/zero/1.0/ -->

<!-- All image edits released back to the public domain under the Creative Commons Zero 1.0 Public Domain License -->

<svg
   xmlns:dc="http://purl.org/dc/elements/1.1/"
   xmlns:cc="http://creativecommons.org/ns#"
   xmlns:rdf="http://www.w3.org/1999/02/22-rdf-syntax-ns#"
   xmlns:svg="http://www.w3.org/2000/svg"
   xmlns="http://www.w3.org/2000/svg"
   xmlns:xlink="http://www.w3.org/1999/xlink"
   xmlns:sodipodi="http://sodipodi.sourceforge.net/DTD/sodipodi-0.dtd"
   xmlns:inkscape="http://www.inkscape.org/namespaces/inkscape"
   id="svg2"
   sodipodi:docname="sheep_02.svg"
   viewBox="0 0 442.9765 442.9765"
   sodipodi:version="0.32"
   version="1.1"
   inkscape:version="0.92+devel unknown"
   width="442.9765"
   height="442.9765">
  <defs
     id="defs4">
    <linearGradient
       id="linearGradient2352">
      <stop
         id="stop2354"
         style="stop-color:#000000"
         offset="0" />
      <stop
         id="stop2356"
         style="stop-color:#737373;stop-opacity:0"
         offset="1" />
    </linearGradient>
    <radialGradient
       id="radialGradient3751"
       gradientUnits="userSpaceOnUse"
       cy="234.50999"
       cx="215.44"
       gradientTransform="matrix(1.1676,0,0,1.2148,-133.49,-148.11)"
       r="122.48"
       inkscape:collect="always">
      <stop
         id="stop2344"
         style="stop-color:rgb(201, 139, 43);stop-opacity:0"
         offset="0" />
      <stop
         id="stop2346"
         style="stop-color:rgb(201, 139, 43)"
         offset="1" />
    </radialGradient>
    <linearGradient
       id="linearGradient3755"
       y2="173.92999"
       xlink:href="#linearGradient2352"
       gradientUnits="userSpaceOnUse"
       x2="236.78"
       y1="173.92999"
       x1="229.47"
       inkscape:collect="always" />
    <linearGradient
       id="linearGradient3759"
       y2="288.23999"
       xlink:href="#linearGradient2352"
       gradientUnits="userSpaceOnUse"
       x2="383.98999"
       gradientTransform="matrix(0.9248,0,0,0.9248,-81.168,-78.798)"
       y1="365.81"
       x1="379.01999"
       inkscape:collect="always" />
    <linearGradient
       inkscape:collect="always"
       xlink:href="#linearGradient2352"
       id="linearGradient3507"
       gradientUnits="userSpaceOnUse"
       x1="229.47"
       y1="173.92999"
       x2="236.78"
       y2="173.92999" />
    <clipPath
       clipPathUnits="userSpaceOnUse"
       id="clipPath4348">
      <circle
         r="221.48825"
         cy="171.70155"
         cx="165.57838"
         id="circle4350"
         style="opacity:1;fill:#8300ff;fill-opacity:1;fill-rule:evenodd;stroke-width:1.5417738" />
    </clipPath>
  </defs>
  <sodipodi:namedview
     id="base"
     bordercolor="#666666"
     inkscape:pageshadow="2"
     inkscape:window-y="0"
     pagecolor="#ffffff"
     inkscape:window-height="1000"
     inkscape:window-maximized="0"
     inkscape:zoom="0.848"
     inkscape:window-x="2259"
     showgrid="false"
     borderopacity="1.0"
     inkscape:current-layer="layer1"
     inkscape:cx="283.40432"
     inkscape:cy="135.63716"
     inkscape:window-width="1569"
     inkscape:pageopacity="0.0"
     inkscape:document-units="px"
     inkscape:document-rotation="0"
     fit-margin-top="0"
     fit-margin-left="0"
     fit-margin-right="0"
     fit-margin-bottom="0" />
  <g
     id="layer1"
     inkscape:label="Layer 1"
     inkscape:groupmode="layer"
     transform="translate(-12.637766,-7.2383026)">
    <g
       id="g4373"
       transform="translate(-87.264151,27.122641)">
      <circle
         r="221.48825"
         cy="201.60391"
         cx="321.39017"
         id="path3539"
         style="opacity:1;fill:#919191;fill-opacity:1;fill-rule:evenodd;stroke-width:1.5417738" />
      <g
         clip-path="url(#clipPath4348)"
         transform="translate(155.81179,29.902361)"
         id="g3716"
         style="opacity:0.3">
        <path
           inkscape:connector-curvature="0"
           d="m 191.73,9.9535 c -5.6484,3.3937 -11.612,6.0425 -18.248,6.1286 -8.2047,1.8473 -15.298,9.0182 -16.2,17.512 -12,1.1662 -20.652,15.003 -17.022,26.357 -32.431,8.8642 -58.914,31.206 -81.525,55.202 -21.778,20.753 -33.987,51.401 -30.8,81.474 3.1239,39.05 30.93,74.066 66.808,88.83 -2.3746,5.3794 -1.8687,12.265 1.9074,16.878 -6.8064,7.2996 -5.269,20.618 3.3813,25.808 -2.6546,8.7564 0.45118,19.193 9.1612,23.12 2.6219,6.4365 8.1338,11.384 10.928,17.774 3.0101,3.7806 7.3611,6.7962 12.279,7.195 3.0017,7.8332 12.534,12.071 20.49,10.028 3.7009,9.61 16.926,14.134 25.576,8.3232 9.4046,1.4138 18.332,5.5784 27.766,6.2722 4.5669,-1.0559 9.5523,-3.3205 13.534,0.37516 6.666,4.6182 15.639,2.8248 21.542,-1.8764 5.8074,-2.1835 10.746,1.94 15.932,3.1715 11.464,1.1938 23.096,2.3628 34.509,0.76233 5.5206,1.1596 10.999,0.17985 15.524,-3.2138 4.8769,-2.6713 9.2743,0.0351 13.352,2.601 5.9812,2.1525 13.271,1.2586 17.976,-3.2079 5.1606,0.11103 10.128,-2.6081 14.161,2.0117 7.4328,3.2825 17.339,1.0891 21.964,-5.7975 7.3563,4.9402 18.018,3.788 23.638,-3.1671 5.2364,-2.262 11.25,-3.2603 14.759,-8.3085 5.567,-5.2966 15.508,-3.5292 18.931,-11.419 3.2179,-4.4286 10.327,-4.0297 12.887,-9.5226 3.6801,-4.273 3.5619,-10.355 3.6803,-15.329 1.8468,-4.8493 5.2795,-7.7951 9.6537,-10.14 5.5207,-5.4015 7.8552,-14.758 3.3524,-21.473 2.984,-7.0069 11.381,-13.34 7.4899,-21.841 -2.865,-8.4094 -0.8709,-18.297 -5.9871,-25.931 4.9801,-6.6211 5.0493,-15.763 -0.069,-22.306 -0.90546,-8.9026 -5.06,-17.724 -11.722,-24.02 0.78219,-7.7198 -1.4929,-16.321 -9.1642,-19.733 -5.4279,-2.2886 -3.7954,-9.8128 -8.956,-12.924 -5.9691,-4.1055 -11.181,-9.0525 -16.306,-14.131 -4.1079,-8.4255 -15.245,-10.387 -23.258,-6.8502 -3.7072,-6.291 -10.409,-10.611 -17.745,-10.231 -5.0333,-4.0427 -9.393,-9.9502 -16.704,-9.3058 -4.4182,-1.4559 -9.353,4.316 -12.225,2.1386 -5.3545,-5.1843 -13.913,-6.6401 -20.634,-3.3813 -4.2941,-1.437 -8.1507,-4.825 -12.918,-4.1327 -2.877,-4.5457 -3.6284,-10.313 -7.3695,-14.508 -0.7793,-5.2724 6.0841,-8.1643 5.5602,-13.823 2.2861,-4.7931 -3.6131,-11.019 1.9538,-13.834 8.0625,-10.01 3.9661,-28.057 -9.0456,-31.472 -3.6405,-4.625 -5.7176,-11.352 -11.823,-13.089 -2.8143,-5.9996 -4.2486,-13.211 -10.807,-16.464 -4.8044,-3.7729 -12.442,-1.739 -15.692,-7.5838 -3.8473,-2.9244 -8.4289,-5.0291 -13.323,-5.1442 -4.11,-9.313 -15.61,-14.273 -25.33,-11.676 -5.78,-4.919 -14.03,-6.5907 -21.27,-4.306 -4.49,-2.2077 -9.69,-2.1888 -14.54,-1.8205 z"
           style="color:#000000;fill:#000000;fill-rule:evenodd"
           id="path2224" />
        <path
           inkscape:connector-curvature="0"
           d="M 99.364,87.999 C 133.85,65.541 156.96,56.073 173.3,81.166 c 11.49,17.655 -9.85,47.724 -44.34,70.174 -34.487,22.46 -65.028,36.77 -76.524,19.12 -11.497,-17.66 12.44,-60 46.928,-82.461 z"
           style="color:#000000;fill:#1a1a1a;fill-rule:evenodd"
           id="path2051" />
        <path
           inkscape:connector-curvature="0"
           d="m 310.11,147.98 c -6.0571,0.0832 -6.4378,9.9224 -12.801,7.5824 -26.102,-0.81411 -52.274,-3.9819 -78.368,-2.1866 -44.098,5.3632 -81.568,38.017 -98.78,78.125 -6.5357,14.693 -10.475,30.464 -11.974,46.47 -11.119,1.078 -15.606,17.748 -6.5603,24.16 -4.3426,4.3376 -7.6615,10.56 -4.7128,16.683 0.73214,4.2099 6.767,6.6458 7.9496,8.662 -5.078,7.2982 -0.92337,19.26 7.9764,21.039 -0.19884,5.5067 5.0121,8.9647 7.6835,12.705 1.0588,6.7021 7.6789,11.996 14.454,11.542 1.716,8.4846 12.78,13.021 20.172,8.8434 1.4973,10.141 14.722,15.828 22.686,9.0456 6.399,1.9752 13.114,2.5387 19.45,4.4506 5.1542,3.2474 11.208,2.594 16.217,-0.40089 6.2187,0.69568 11.549,7.8104 18.491,5.2501 4.678,-0.37282 6.7505,-6.8404 11.817,-4.4141 5.2569,-1.4104 8.7024,0.58135 12.771,3.4006 7.8939,0.96957 15.911,0.49414 23.796,1.7456 5.3013,0.70027 10.676,-3.0869 16.005,-0.37935 5.7024,0.56301 8.9403,-5.9976 14.594,-4.5662 5.0496,-3.1937 6.9811,2.4952 11.325,3.7174 5.2954,1.8135 11.858,0.38239 15.379,-4.122 4.4604,3.0174 10.381,-4.5667 13.005,0.63579 6.868,6.1948 19.773,3.5694 22.715,-5.3465 5.3113,3.3414 12.525,7.0331 18.301,2.6043 3.2729,-3.2016 6.0803,-6.515 11.062,-6.0145 6.7058,-2.0218 9.3298,-10.238 16.886,-10.31 5.9011,-0.72114 9.6938,-5.0632 11.87,-10.238 9.124,0.324 16.33,-10.632 12.196,-18.9 4.538,-1.9153 2.8114,-9.3502 7.3117,-9.6814 8.1602,-2.8809 12.624,-14.373 6.5892,-21.241 0.33619,-5.2986 4.4075,-7.7461 7.0635,-11.644 2.4872,-4.321 2.0161,-10.155 -1.0234,-14.106 1.6217,-5.4625 -1.7451,-10.899 -1.2138,-16.473 -2.1856,-3.9304 -6.0944,-6.9778 -0.78029,-10.288 3.2125,-5.5058 1.8668,-13.335 -3.2079,-17.253 2.2215,-6.946 -3.3032,-13.422 -6.4158,-19.161 -4.7078,-2.3224 -5.7474,-6.0966 -4.2194,-10.751 0.30711,-7.219 -7.0596,-12.486 -12.514,-13.959 0.54798,-6.5485 -4.2959,-13.195 -10.78,-14.45 -1.8592,-5.9974 -9.8905,-6.8221 -11.584,-13.042 -4.7911,-6.5116 -14.343,-6.429 -20.58,-2.7015 -3.6804,-3.5626 -5.3289,-10.189 -11.718,-10.322 -4.7722,-0.006 -9.5545,-0.72215 -11.441,-5.6635 -5.5206,-6.0087 -16.473,-5.7623 -21.434,0.69112 -3.5971,-4.3386 -7.7318,-8.7719 -13.959,-8.1498 -5.5472,0.79512 -8.7984,4.7556 -12.994,-0.5239 -3.1993,-1.9152 -7.167,-1.8452 -10.703,-1.0656 z m 4.3119,2.9674 c -5.2978,0 -9.5094,3.7872 -10.38,8.6633 l -71.258,-3.5122 c -65.942,0 -117.25,59.646 -121.29,125.19 -0.19142,-0.01 -0.35241,-0.0781 -0.54634,-0.0781 -5.9231,0 -10.771,4.6616 -10.771,10.38 0,3.8938 2.3274,7.1276 5.6194,8.8975 -0.16538,0.72246 -0.46829,1.4151 -0.46829,2.1853 0,0.63313 0.27743,1.1932 0.39025,1.7951 -3.6558,1.652 -6.2438,5.1353 -6.2438,9.2877 0,5.7188 4.7695,10.38 10.693,10.38 0.41242,0 0.77037,-0.19034 1.1707,-0.23415 -0.002,0.0841 -0.0781,0.14963 -0.0781,0.23415 0,0.77026 0.30291,1.4629 0.46829,2.1854 -3.292,1.7698 -5.6195,5.0036 -5.6195,8.8975 0,5.7188 4.7695,10.38 10.693,10.38 0.0526,0 0.10362,7.2e-4 0.15609,0 -0.17148,0.73492 -0.46829,1.4006 -0.46829,2.1853 0,4.6685 3.2497,8.5405 7.6487,9.834 -0.0619,0.44978 -0.23415,0.86077 -0.23415,1.3268 0,5.7188 4.7695,10.302 10.693,10.302 1.2548,0 2.3927,-0.24168 3.5122,-0.62438 -0.0149,0.22296 -0.1561,0.39784 -0.1561,0.62438 0,5.7188 4.7695,10.38 10.693,10.38 2.8982,0 5.4831,-1.1608 7.4146,-2.9658 0.92868,0.51002 1.891,0.86827 2.9658,1.0927 -0.12218,0.62531 -0.39024,1.2137 -0.39024,1.8732 0,5.7188 4.8476,10.38 10.771,10.38 3.211,0 5.9939,-1.4298 7.9609,-3.5902 1.7529,1.2034 3.7746,2.1073 6.0877,2.1073 1.0891,0 2.0532,-0.33269 3.0439,-0.62437 1.916,1.721 4.5152,2.8098 7.3365,2.8097 1.1199,0 2.1068,-0.31664 3.1219,-0.62438 1.9669,2.1572 4.7526,3.5902 7.9609,3.5902 3.3395,0 6.1485,-1.5903 8.117,-3.9024 1.8438,1.4425 4.0778,2.4195 6.6341,2.4195 0.11097,0 0.20206,-0.0748 0.31219,-0.078 1.9434,2.6561 4.9634,4.5268 8.5853,4.5268 4.5571,0 8.4353,-2.7623 9.9901,-6.6341 1.7908,1.294 3.9147,2.1853 6.3219,2.1853 2.5173,0 4.7252,-0.93827 6.556,-2.3414 1.6909,3.5787 5.3402,6.0877 9.678,6.0877 1.4808,0 2.931,-0.33405 4.2146,-0.85854 1.6091,0.93038 3.4526,1.561 5.4634,1.561 1.8471,0 3.477,-0.53218 4.9951,-1.3268 1.7529,1.2034 3.7746,2.1073 6.0877,2.1073 2.9615,0 5.6285,-1.1687 7.5706,-3.0439 1.8144,1.3563 4.0075,2.2634 6.478,2.2634 4.0921,0 7.5562,-2.2859 9.3658,-5.5414 1.4332,0.68557 2.976,1.0927 4.6829,1.0927 2.716,0 5.1335,-1.0454 7.0243,-2.6536 1.4298,4.0999 5.2638,7.1024 9.9901,7.1024 4.0921,0 7.5562,-2.2859 9.3658,-5.5414 1.4332,0.68557 2.976,1.0927 4.6829,1.0927 3.7744,0 6.9845,-1.9918 8.8975,-4.839 0.9063,4.8347 5.1131,8.5852 10.38,8.5853 5.6379,0 10.104,-4.263 10.536,-9.5999 1.12,0.38304 2.2568,0.70245 3.5122,0.70243 0.55795,0 1.0259,-0.23279 1.561,-0.3122 1.9204,2.8063 5.0775,4.7609 8.8194,4.7609 5.098,0 9.1333,-3.5126 10.224,-8.117 1.1854,0.43588 2.481,0.70246 3.8243,0.70244 4.7,0 8.6178,-2.9601 10.068,-7.0243 2.6263,-0.4798 4.8262,-1.781 6.3999,-3.7463 0.67498,0.1286 1.3154,0.39024 2.0292,0.39024 5.923,0 10.693,-4.6616 10.693,-10.38 0,-0.19425 -0.0671,-0.3547 -0.078,-0.54633 0.88754,0.22974 1.7694,0.54633 2.7317,0.54633 5.923,0 10.693,-4.5836 10.693,-10.302 0,-2.4165 -0.98135,-4.559 -2.4195,-6.3219 3.5722,-1.6824 6.0877,-5.1162 6.0877,-9.2097 0,-0.90556 -0.24189,-1.7382 -0.46829,-2.5756 0.55185,0.0846 1.0626,0.31219 1.639,0.31219 5.9231,0 10.693,-4.6616 10.693,-10.38 0,-3.0174 -1.3778,-5.5986 -3.5122,-7.4926 1.1991,-1.6723 2.0292,-3.589 2.0292,-5.7756 0,-0.99192 -0.3544,-1.9012 -0.62439,-2.8097 4.5887,-1.1757 8.039,-4.9572 8.039,-9.756 0,-2.9196 -1.2633,-5.5308 -3.278,-7.4146 0.66442,-1.3473 1.0927,-2.858 1.0927,-4.4487 0,-2.2057 -0.88885,-4.1729 -2.1073,-5.8536 0.31289,-0.97193 0.62438,-1.973 0.62438,-3.0439 0,-3.385 -1.8458,-6.2261 -4.4487,-8.117 0,-1.2344 -0.29166,-2.414 -0.70243,-3.5122 3.4343,-1.7282 5.8536,-5.0579 5.8536,-9.0536 0,-4.0332 -2.4445,-7.4984 -5.9316,-9.2097 0.84656,-1.4815 1.4829,-3.1064 1.4829,-4.917 0,-3.1904 -1.551,-5.9039 -3.9024,-7.8048 -0.4812,-3.9673 -3.1677,-7.2104 -6.9463,-8.5072 -0.37896,-1.5629 -1.0092,-3.0126 -2.0292,-4.2146 1.0298,-1.5903 1.7951,-3.2947 1.7951,-5.3073 0,-5.7188 -4.7695,-10.38 -10.693,-10.38 -1.2902,0 -2.5221,0.29877 -3.6682,0.70243 -0.0563,-0.0701 -0.17762,-0.0862 -0.23415,-0.1561 1.1882,-1.6675 2.0292,-3.5219 2.0292,-5.6975 0,-5.479 -4.4895,-9.8572 -10.068,-10.224 -0.95386,-4.3947 -4.6436,-7.7014 -9.3658,-8.117 -0.31304,-5.4483 -4.8158,-9.834 -10.536,-9.834 -2.9615,0 -5.6285,1.1687 -7.5706,3.0439 -1.3,-0.54047 -2.7882,-0.78048 -4.2926,-0.78048 -0.69991,0 -1.2886,0.26652 -1.9512,0.39024 0.006,-0.13891 0.078,-0.24997 0.078,-0.39024 0,-5.7188 -4.7695,-10.38 -10.693,-10.38 -1.3433,0 -2.6389,0.26657 -3.8244,0.70244 -1.2376,-1.3859 -2.7717,-2.4431 -4.6048,-3.0439 -1.3791,-4.1843 -5.2794,-7.2585 -10.068,-7.2585 -4.1721,0 -7.7472,2.3373 -9.5218,5.6975 -0.98965,-0.29102 -1.9561,-0.54633 -3.0439,-0.54633 -0.54988,0 -1.0332,0.23503 -1.561,0.31218 -0.95473,-4.7766 -5.0777,-8.4292 -10.302,-8.4292 -4.2989,0 -7.966,2.4824 -9.678,6.0097 -1.0308,-4.6821 -5.1472,-8.273 -10.302,-8.2731 z"
           style="color:#000000;fill:#000000;fill-rule:evenodd"
           id="path2126" />
        <path
           inkscape:connector-curvature="0"
           d="m 142.69,63.043 c -21.504,5.3307 -40.527,17.796 -57.653,31.412 -18.612,16.121 -35.421,37.022 -39.107,62.013 -1.5567,12.242 7.4254,25.846 20.645,25.257 17.244,0.55873 32.752,-8.899 47.353,-16.935 25.808,-14.891 52.258,-33.394 64.309,-61.721 4.3468,-11.812 0.32236,-25.517 -9.6808,-33.125 -6.9605,-6.1321 -16.793,-8.5506 -25.866,-6.9014 z M 99.364,87.999 C 133.85,65.541 156.96,56.073 173.3,81.166 c 11.49,17.655 -9.85,47.724 -44.34,70.174 -34.487,22.46 -65.028,36.77 -76.524,19.12 -11.497,-17.66 12.44,-60 46.928,-82.461 z"
           style="color:#000000;fill:#333333;fill-rule:evenodd"
           id="path2194" />
        <path
           inkscape:connector-curvature="0"
           d="m 196.91,52.956 c -27.888,2.3241 -54.571,15.874 -73.443,36.448 -42.761,7.033 -81.714,41.161 -87.833,85.091 -6.3995,39.126 15.861,79.102 49.903,98.108 46.091,27.408 111.14,18.693 146.28,-22.607 17.024,-19.069 24.981,-44.926 23.678,-70.273 0.39649,-32.139 13.932,-50.007 -2.6479,-96.515 -7.14,-20.035 -27.76,-30.39 -47.21,-30.465 -2.9102,-0.07999 -5.824,-0.0046 -8.7272,0.20982 z"
           style="color:#000000;fill:#e4e4e4;fill-rule:evenodd;fill-opacity:1"
           sodipodi:nodetypes="ccccccscc"
           id="path1316" />
        <path
           inkscape:connector-curvature="0"
           d="m 141.85,74.425 c -2.5945,0.25393 -5.789,1.442 -8.8975,3.4341 -6.0048,3.8484 -9.5604,9.3752 -8.2731,12.644 4.7968,-0.3499 10.701,-2.4198 16.546,-6.1658 2.4068,-1.5425 4.4643,-3.3031 6.3999,-5.0731 0.2027,-1.061 0.11172,-2.0072 -0.31219,-2.8097 -0.84779,-1.6049 -2.8689,-2.2832 -5.4634,-2.0292 z"
           style="color:#000000;fill:#000000;fill-rule:evenodd"
           id="path2109" />
        <path
           inkscape:connector-curvature="0"
           d="m 168.92,81.756 c -5.8833,-0.19094 -11.739,4.4053 -12.885,10.652 -0.0665,1.4168 0.99278,2.5131 1.8316,3.4753 1.2868,1.2808 2.7248,2.558 4.4643,3.0296 5.6676,0.44021 11.49,1.049 16.68,3.7121 1.4945,-0.52756 1.0142,-2.5442 0.4869,-3.6781 -0.86747,-2.94 -0.25498,-6.1892 1.1476,-8.824 0.56015,-1.5505 -1.0309,-2.6464 -1.7354,-3.7866 -2.536,-2.9246 -6.2591,-4.6241 -9.9908,-4.5806 z"
           style="color:#000000;fill:#000000;fill-rule:evenodd"
           id="path2117" />
        <path
           inkscape:connector-curvature="0"
           d="m 196.88,49.257 c -28.464,2.5802 -55.593,16.015 -75.226,36.732 -44.729,7.7427 -84.938,44.78 -90.052,90.89 -5.7391,44.828 24.161,89.452 65.569,105.59 48.503,20.989 111.35,6.7472 142.67,-36.817 15.338,-19.993 20.285,-45.846 19.673,-70.557 1.7128,-24.339 9.0995,-49.076 2.2618,-73.334 -3.12,-18.069 -11.04,-37.32 -28.53,-45.727 -11.09,-6.116 -23.91,-7.483 -36.36,-6.766 z m 0.0283,3.6987 c -27.888,2.3241 -54.571,15.874 -73.443,36.448 -42.761,7.033 -81.714,41.161 -87.833,85.091 -6.3995,39.126 15.861,79.102 49.903,98.108 46.091,27.408 111.14,18.693 146.28,-22.607 17.024,-19.069 24.981,-44.926 23.678,-70.273 0.39648,-32.139 13.932,-50.007 -2.6479,-96.515 -7.14,-20.035 -27.76,-30.39 -47.21,-30.465 -2.9102,-0.07999 -5.824,-0.0046 -8.7272,0.20982 z"
           style="color:#000000;fill:#000000;fill-rule:evenodd"
           id="path2177" />
        <path
           inkscape:connector-curvature="0"
           d="m 197.14,16.901 c -7.1418,-1.686 -10.426,8.1288 -16.483,5.7632 -9.2375,-1.3871 -19.285,7.8913 -15.751,17.323 -0.46237,1.8231 -9.0029,-0.85716 -11.9,2.7442 -8.0467,4.2685 -8.8384,16.768 -1.1531,21.806 6.3591,6.0703 16.07,1.351 21.464,-0.19816 6.4371,7.072 15.65,-1.1629 21.454,4.9358 5.9008,3.6598 12.692,-2.9425 15.991,4.3087 4.4963,3.6827 10.751,2.077 11.82,8.8767 2.6578,5.2247 11.009,5.5058 14.051,6.3223 -0.15153,9.0647 10.214,15.879 18.575,12.956 2.3275,8.1651 12.347,12.157 19.98,9.0536 -0.76052,11.541 14.416,18.052 23.374,11.866 9.4083,-4.0509 6.1716,-17.321 3.015,-21.451 7.9474,-2.4372 12.302,-12.964 6.8469,-19.764 -3.3275,-6.6405 -13.643,-3.138 -12.705,-11.549 -1.4065,-5.5669 -9.1936,-7.123 -11.731,-9.3214 3.1468,-9.9269 -8.8955,-19.131 -18.087,-15.732 -2.1734,-7.3659 -10.932,-11.854 -18.185,-9.3658 -0.48266,-10.372 -13.512,-16.032 -22.088,-11.083 -4.1394,-6.3234 -13.231,-8.4699 -19.746,-4.6048 -2.5702,-1.743 -5.6046,-2.9082 -8.7414,-2.8878 z"
           style="color:#000000;fill:#232323;fill-rule:evenodd"
           id="path2055" />
        <path
           inkscape:connector-curvature="0"
           d="m 193.38,13.277 c -5.455,1.5428 -9.4708,7.4186 -15.603,5.7425 -9.0864,0.22732 -17.775,8.5694 -17.054,17.869 -13.356,-1.0188 -23.27,16.32 -14.656,27.024 5.5045,7.9508 16.928,9.0563 25.031,4.7946 5.9703,2.5812 12.325,2.1912 18.648,2.3042 4.4351,2.3296 9.2604,3.9054 14.414,2.811 4.3168,0.84502 7.052,5.4144 11.813,6.3419 4.3868,2.8041 5.2969,9.1378 11.22,10.189 6.7862,-0.59856 6.6305,5.4225 10.154,9.4635 3.8939,4.2984 9.9245,6.8737 15.74,6.0558 3.3991,6.81 11.615,10.493 19.016,9.4214 3.5365,15.915 29.702,18.108 35.241,2.5186 1.8864,-4.7789 1.1449,-10.352 -0.99495,-14.945 11.86,-6.1748 10.018,-26.946 -3.7114,-29.515 -5.175,-2.2682 -3.318,-10.124 -9.4738,-11.758 -5.677,-1.3679 -5.0491,-6.4341 -6.6401,-10.833 -3.348,-6.6437 -10.983,-11.095 -18.438,-10.028 -3.3372,-6.1996 -10.633,-10.066 -17.629,-9.4791 -2.8203,-9.5017 -14.652,-14.644 -23.727,-11.184 -5.0638,-5.4699 -13.849,-7.3539 -20.692,-4.3639 -3.7877,-2.2471 -8.3807,-2.5618 -12.658,-2.4276 z m 3.7593,3.624 c -7.1418,-1.686 -10.426,8.1288 -16.483,5.7632 -9.2375,-1.3871 -19.285,7.8913 -15.751,17.323 -0.46237,1.8231 -9.0029,-0.85716 -11.9,2.7442 -8.0467,4.2685 -8.8384,16.768 -1.1531,21.806 6.3591,6.0703 16.07,1.351 21.464,-0.19816 6.4371,7.072 15.65,-1.1629 21.454,4.9358 5.9008,3.6598 12.692,-2.9425 15.991,4.3087 4.4963,3.6827 10.751,2.077 11.82,8.8767 2.6578,5.2247 11.009,5.5058 14.051,6.3223 -0.15153,9.0647 10.214,15.879 18.575,12.956 2.3275,8.1651 12.347,12.157 19.98,9.0536 -0.76052,11.541 14.416,18.052 23.374,11.866 9.4083,-4.0509 6.1716,-17.321 3.015,-21.451 7.9474,-2.4372 12.302,-12.964 6.8469,-19.764 -3.3275,-6.6405 -13.643,-3.138 -12.705,-11.549 -1.4065,-5.5669 -9.1936,-7.123 -11.731,-9.3214 3.1468,-9.9269 -8.8955,-19.131 -18.087,-15.732 -2.1734,-7.3659 -10.932,-11.854 -18.185,-9.3658 -0.48266,-10.372 -13.512,-16.032 -22.088,-11.083 -4.1394,-6.3234 -13.231,-8.4699 -19.746,-4.6048 -2.5702,-1.743 -5.6046,-2.9082 -8.7414,-2.8878 z"
           style="color:#000000;fill:#303030;fill-rule:evenodd"
           id="path2143" />
        <path
           inkscape:connector-curvature="0"
           d="m 315.53,194.52 c 0,43.572 -4.9465,69.537 -36.648,69.537 -22.305,0 -36.648,-36.302 -36.648,-79.874 0,-43.572 4.9466,-78.934 27.251,-78.934 22.305,0 46.045,45.699 46.045,89.271 z"
           style="color:#000000;fill:#252525;fill-rule:evenodd"
           sodipodi:nodetypes="csssc"
           id="path2048" />
        <ellipse
           ry="4.3848424"
           rx="3.6540353"
           cy="173.93208"
           cx="233.12746"
           transform="matrix(0.46378,0.6704,-0.64787,0.44819,142.2,-154.39)"
           style="color:#000000;fill:url(#linearGradient3507);fill-rule:evenodd"
           id="path2350" />
        <ellipse
           ry="4.3848424"
           rx="3.6540353"
           cy="173.93208"
           cx="233.12746"
           transform="matrix(0.60416,0.79866,-0.84397,0.53393,171.41,-191)"
           style="color:#000000;fill:url(#linearGradient3755);fill-rule:evenodd"
           id="path2360" />
        <path
           inkscape:connector-curvature="0"
           d="m 265.14,101.97 c -15.81,3.9124 -20.906,21.469 -23.409,35.576 -4.3258,33.839 -5.7589,69.435 6.1433,101.97 5.2366,14.179 16.964,29.244 33.645,28.187 15.624,-0.0375 30.157,-11.544 33.039,-27.054 5.426,-19.829 5.1507,-40.82 3.6544,-61.161 -3.3005,-25.642 -12.084,-52.168 -31.138,-70.438 -6.1452,-4.9579 -13.846,-8.7191 -21.935,-7.0805 z m 50.39,92.554 c 0,43.572 -4.9465,69.537 -36.648,69.537 -22.305,0 -36.648,-36.302 -36.648,-79.874 0,-43.572 4.9466,-78.934 27.251,-78.934 22.305,0 46.045,45.699 46.045,89.271 z"
           style="color:#000000;fill:#0d0d0d;fill-rule:evenodd"
           id="path2160" />
        <path
           inkscape:connector-curvature="0"
           d="m 260.2,112.55 c -12.235,14.022 -12.202,33.793 -13.688,51.325 -1.223,28.803 -1.1302,60.012 14.927,85.122 1.9087,4.9846 7.3937,8.1058 10.403,2.0347 4.9238,-8.6512 1.4816,-19.193 2.5225,-28.662 -0.1172,-33.975 0.38462,-68.112 -0.65069,-101.98 -1.9864,-4.9613 -7.9398,-9.7789 -13.513,-7.835 z"
           style="color:#000000;fill:url(#linearGradient3759);fill-rule:evenodd"
           id="rect2203" />
        <path
           inkscape:connector-curvature="0"
           d="m 74.929,162.33 c 2.0584,2.8622 2.3247,6.4958 3.3074,9.7843 0.70855,2.7864 1.9803,5.4134 3.7128,7.7058 1.7586,2.6415 3.2252,5.8026 2.6122,9.0526 -0.38012,2.532 -1.5648,5.1265 -3.7249,6.597 -1.8677,0.58986 -3.1815,-1.3268 -3.9324,-2.7477 -1.652,-3.0097 -1.2367,-6.5393 -1.6111,-9.8313 -0.25462,-3.2305 -0.35709,-6.4743 -0.51693,-9.7069 -0.49521,-2.9967 -1.9107,-6.0739 -0.88593,-9.1182 0.13764,-0.64257 0.18506,-1.6596 1.039,-1.7355 z"
           style="fill:#575757;fill-rule:evenodd;fill-opacity:1"
           id="path2127" />
        <path
           inkscape:connector-curvature="0"
           d="m 83.948,208.95 c 0.31224,7.3703 -1.0025,14.931 1.1903,22.124 1.6242,6.2804 3.4504,12.565 4.056,19.045 0.3509,0.90868 -0.65542,2.6936 -1.3052,1.1713 -2.034,-7.0708 -4.4295,-14.102 -5.3624,-21.429 -0.51112,-5.4635 0.57961,-11.058 -0.1421,-16.421 -0.26289,-1.9535 1.346,-3.7621 1.5153,-5.1262 l 0.01091,0.34311 0.03718,0.29239 z"
           style="fill:#575757;fill-rule:evenodd;fill-opacity:1"
           sodipodi:nodetypes="cccccscccc"
           id="path2129" />
        <path
           inkscape:connector-curvature="0"
           d="m 123.54,174.63 c -4.695,0.91405 -8.3705,4.2087 -12.602,6.2047 -2.7733,1.3998 -5.8009,2.1599 -8.8323,2.7512 -3.5456,0.8816 -7.2841,2.4103 -9.284,5.6569 -1.3657,2.0178 -2.1931,4.6118 -1.4637,7.0193 1.183,1.576 3.4333,1.2225 5.0918,0.77736 3.6094,-0.84254 6.3237,-3.4998 9.0393,-5.8405 3.2846,-2.5977 6.3675,-5.4397 9.5567,-8.1483 2.7268,-1.8764 6.1322,-3.1023 7.8936,-6.0833 0.30787,-0.70119 1.42,-1.5775 0.60086,-2.3374 z"
           style="fill:#575757;fill-rule:evenodd;fill-opacity:1"
           id="path2131" />
      </g>
    </g>
  </g>
  <metadata
     id="metadata52">
    <rdf:RDF>
      <cc:Work>
        <dc:format>image/svg+xml</dc:format>
        <dc:type
           rdf:resource="http://purl.org/dc/dcmitype/StillImage" />
        <cc:license
           rdf:resource="http://creativecommons.org/publicdomain/zero/1.0/" />
        <dc:publisher>
          <cc:Agent
             rdf:about="http://openclipart.org/">
            <dc:title>Openclipart</dc:title>
          </cc:Agent>
        </dc:publisher>
        <dc:title>valid_CSS</dc:title>
        <dc:date>2010-03-13T21:38:56</dc:date>
        <dc:description>CSS valid Cascading Style Sheets black sheep</dc:description>
        <dc:source>https://openclipart.org/detail/31519/valid_css-by-fitorec</dc:source>
        <dc:creator>
          <cc:Agent>
            <dc:title>fitorec</dc:title>
          </cc:Agent>
        </dc:creator>
        <dc:subject>
          <rdf:Bag>
            <rdf:li>animal</rdf:li>
            <rdf:li>black</rdf:li>
            <rdf:li>cartoon</rdf:li>
            <rdf:li>css</rdf:li>
            <rdf:li>mammal</rdf:li>
            <rdf:li>remix</rdf:li>
            <rdf:li>sheep</rdf:li>
          </rdf:Bag>
        </dc:subject>
      </cc:Work>
      <cc:License
         rdf:about="http://creativecommons.org/publicdomain/zero/1.0/">
        <cc:permits
           rdf:resource="http://creativecommons.org/ns#Reproduction" />
        <cc:permits
           rdf:resource="http://creativecommons.org/ns#Distribution" />
        <cc:permits
           rdf:resource="http://creativecommons.org/ns#DerivativeWorks" />
      </cc:License>
    </rdf:RDF>
  </metadata>
</svg>
